<svg width="148" height="148" viewBox="0 0 148 148" fill="none" xmlns="http://www.w3.org/2000/svg">
<g clip-path="url(#clip0_3130_134)">
<path d="M148 74C148 79.0763 147.489 84.0331 146.515 88.822H138.219C134.001 88.822 130.058 86.7289 127.695 83.2352L114.849 64.2452C112.625 60.9574 107.771 60.9933 105.595 64.3135C103.517 67.4859 98.9416 67.6911 96.5875 64.7175L81.9859 46.2733C78.4051 41.7502 71.5081 41.7932 67.9273 46.3163C66.793 47.7492 65.2292 48.8007 63.4719 49.3027C61.0674 49.9897 59.0729 51.6748 57.994 53.9308L56.0809 57.9308C55.0996 59.9827 53.7497 61.8369 52.0986 63.4012L41.8197 73.139C38.7235 76.0723 34.6207 77.7071 30.3557 77.7071C27.7202 77.7071 25.1223 78.332 22.7751 79.5306L9.92324 86.0932C7.26775 87.4492 4.39779 88.3146 1.45121 88.6561C0.499401 83.9187 0 79.0177 0 74C0 33.1309 33.1309 0 74 0C114.869 0 148 33.1309 148 74Z" fill="black"/>
<path d="M3.73642 97.2806C3.36879 96.1705 3.02673 95.0487 2.71094 93.916H145.289C144.973 95.0487 144.631 96.1705 144.264 97.2806H3.73642Z" fill="black"/>
<path d="M5.25391 101.438C5.70229 102.561 6.17737 103.67 6.67836 104.764H141.322C141.823 103.67 142.298 102.561 142.746 101.438H5.25391Z" fill="black"/>
<path d="M10.6382 112.247C9.97854 111.157 9.34621 110.048 8.74219 108.921H139.258C138.654 110.048 138.022 111.157 137.362 112.247H10.6382Z" fill="black"/>
<path d="M13.3477 116.404C14.1407 117.537 14.9647 118.646 15.8183 119.73H132.183C133.037 118.646 133.861 117.537 134.654 116.404H13.3477Z" fill="black"/>
<path d="M22.5767 127.213C21.4649 126.139 20.3866 125.03 19.3438 123.888H128.656C127.613 125.03 126.535 126.139 125.423 127.213H22.5767Z" fill="black"/>
<path d="M27.2578 131.371C28.6817 132.532 30.1497 133.642 31.6588 134.697H116.343C117.852 133.642 119.32 132.532 120.744 131.371H27.2578Z" fill="black"/>
<path d="M45.1852 142.18C42.8377 141.186 40.5521 140.075 38.3359 138.854H109.666C107.45 140.075 105.164 141.186 102.817 142.18H45.1852Z" fill="black"/>
<path d="M58.3281 146.337C63.3798 147.426 68.6233 148 74.0008 148C79.3783 148 84.6218 147.426 89.6735 146.337H58.3281Z" fill="black"/>
</g>
<defs>
<clipPath id="clip0_3130_134">
<rect width="148" height="148" fill="white"/>
</clipPath>
</defs>
</svg>
